<?xml version="1.0" encoding="UTF-8" standalone="no"?>
<!DOCTYPE svg PUBLIC "-//W3C//DTD SVG 1.1//EN" "http://www.w3.org/Graphics/SVG/1.1/DTD/svg11.dtd">
<svg width="100%" height="100%" viewBox="0 0 40 40" version="1.1" xmlns="http://www.w3.org/2000/svg" xmlns:xlink="http://www.w3.org/1999/xlink" xml:space="preserve" xmlns:serif="http://www.serif.com/" style="fill-rule:evenodd;clip-rule:evenodd;stroke-linejoin:round;stroke-miterlimit:2;">
    <path d="M17,39.776C7.382,38.326 0,30.018 0,20C0,8.962 8.962,0 20,0C31.038,0 40,8.962 40,20C40,30.018 32.618,38.326 23,39.776L23,35.5L17,35.5L17,39.776ZM14,35.91C7.574,33.483 3,27.271 3,20C3,10.617 10.617,3 20,3C29.383,3 37,10.617 37,20C37,27.271 32.426,33.483 26,35.91C26,35.91 26,32.5 26,32.5L14,32.5L14,35.91Z" style="fill:white;"/>
    <g transform="matrix(1,0,0,1,0,-2)">
        <circle cx="20" cy="10" r="2" style="fill:white;"/>
    </g>
    <g transform="matrix(0.707107,-0.707107,0.707107,0.707107,-9.71281,18.5858)">
        <circle cx="20" cy="10" r="2" style="fill:white;"/>
    </g>
    <g transform="matrix(1.11022e-16,-1,1,1.11022e-16,-2,40)">
        <circle cx="20" cy="10" r="2" style="fill:white;"/>
    </g>
    <g transform="matrix(-2.33487e-16,1,-1,-2.33487e-16,42,1.42109e-14)">
        <circle cx="20" cy="10" r="2" style="fill:white;"/>
    </g>
    <g transform="matrix(0.707107,0.707107,-0.707107,0.707107,21.4142,-9.69848)">
        <circle cx="20" cy="10" r="2" style="fill:white;"/>
    </g>
</svg>
