<?xml version="1.0" encoding="UTF-8" standalone="no"?>
<!DOCTYPE svg PUBLIC "-//W3C//DTD SVG 1.1//EN" "http://www.w3.org/Graphics/SVG/1.1/DTD/svg11.dtd">
<svg width="100%" height="100%" viewBox="0 0 40 40" version="1.1" xmlns="http://www.w3.org/2000/svg" xmlns:xlink="http://www.w3.org/1999/xlink" xml:space="preserve" xmlns:serif="http://www.serif.com/" style="fill-rule:evenodd;clip-rule:evenodd;stroke-linejoin:round;stroke-miterlimit:2;">
    <g transform="matrix(0.95,0,0,0.95,1,0.994401)">
        <path d="M17,39.776C7.382,38.326 0,30.018 0,20C0,8.962 8.962,0 20,0C31.038,0 40,8.962 40,20C40,30.018 32.618,38.326 23,39.776L23,35.5L17,35.5L17,39.776ZM13.842,35.68C7.588,33.22 3.158,27.123 3.158,20C3.158,10.705 10.705,3.158 20,3.158C29.295,3.158 36.842,10.705 36.842,20C36.842,27.123 32.412,33.22 26.158,35.68C26.158,35.68 26.158,32.342 26.158,32.342L13.842,32.342L13.842,35.68Z" style="fill:white;"/>
        <g transform="matrix(1,0,0,1,0,-2)">
            <circle cx="20" cy="10" r="2" style="fill:white;"/>
        </g>
        <g transform="matrix(0.707107,-0.707107,0.707107,0.707107,-9.71281,18.5858)">
            <circle cx="20" cy="10" r="2" style="fill:white;"/>
        </g>
        <g transform="matrix(1.11022e-16,-1,1,1.11022e-16,-2,40)">
            <circle cx="20" cy="10" r="2" style="fill:white;"/>
        </g>
        <g transform="matrix(-2.33487e-16,1,-1,-2.33487e-16,42,1.42109e-14)">
            <circle cx="20" cy="10" r="2" style="fill:white;"/>
        </g>
        <g transform="matrix(0.707107,0.707107,-0.707107,0.707107,21.4142,-9.69848)">
            <circle cx="20" cy="10" r="2" style="fill:white;"/>
        </g>
    </g>
    <g transform="matrix(14.0486,0,0,14.0486,17.0277,25.0009)">
        <path d="M0.044,-0L0.131,-0L0.152,-0.2L0.223,-0.2L0.202,-0L0.289,-0L0.31,-0.2L0.361,-0.2L0.369,-0.278L0.318,-0.278L0.337,-0.461L0.388,-0.461L0.396,-0.539L0.345,-0.539L0.362,-0.7L0.275,-0.7L0.258,-0.539L0.187,-0.539L0.204,-0.7L0.117,-0.7L0.1,-0.539L0.05,-0.539L0.042,-0.461L0.092,-0.461L0.073,-0.278L0.024,-0.278L0.016,-0.2L0.065,-0.2L0.044,-0ZM0.16,-0.278L0.179,-0.461L0.25,-0.461L0.231,-0.278L0.16,-0.278Z" style="fill:white;fill-rule:nonzero;"/>
    </g>
</svg>
